<?xml version="1.0" standalone="no"?>
<!DOCTYPE svg PUBLIC "-//W3C//DTD SVG 20010904//EN"
 "http://www.w3.org/TR/2001/REC-SVG-20010904/DTD/svg10.dtd">
<svg version="1.0" xmlns="http://www.w3.org/2000/svg"
 width="2400.000000pt" height="2400.000000pt" viewBox="0 0 2400.000000 2400.000000"
 preserveAspectRatio="xMidYMid meet">

<g transform="translate(0.000000,2400.000000) scale(0.100000,-0.100000)"
fill="#DA291C" stroke="none">
<path d="M15494 23626 c-78 -19 -164 -57 -164 -71 0 -29 -119 -99 -198 -116
-71 -15 -157 8 -302 81 -142 71 -207 90 -311 90 -94 0 -175 -24 -267 -78 -163
-96 -258 -132 -352 -132 -37 0 -107 15 -201 42 -124 36 -158 42 -244 42 -124
1 -173 -18 -285 -111 -107 -91 -121 -94 -455 -103 -365 -11 -574 -45 -825
-132 -468 -164 -843 -470 -1071 -875 -213 -378 -278 -736 -279 -1538 0 -402
-13 -715 -36 -895 -55 -435 -204 -809 -441 -1105 -260 -324 -589 -495 -953
-495 -179 0 -322 35 -495 121 -157 77 -272 165 -450 344 -374 374 -930 1169
-1288 1840 -166 310 -266 568 -323 825 -15 69 -28 126 -29 128 -2 3 -605 -605
-724 -730 l-73 -77 898 -978 c494 -538 1299 -1414 1789 -1947 489 -533 905
-986 923 -1008 l34 -38 -651 0 -651 0 0 -65 0 -65 53 0 c109 0 283 -22 356
-45 146 -46 206 -102 282 -259 78 -160 107 -303 111 -546 2 -74 -3 -484 -10
-910 -24 -1523 -47 -2163 -87 -2525 -12 -105 -21 -142 -45 -191 -55 -113 -175
-201 -325 -238 -73 -19 -211 -36 -281 -36 l-52 0 -4 -55 c-1 -30 -1 -60 0 -65
3 -7 708 -10 2036 -10 l2033 0 112 793 c61 435 114 804 117 820 l6 27 -70 0
-70 0 -47 -107 c-26 -60 -72 -169 -102 -245 -143 -357 -349 -596 -646 -749
-360 -185 -866 -243 -1146 -132 -184 73 -304 207 -340 381 -17 81 -15 1662 2
1662 49 0 277 -33 342 -50 113 -29 266 -107 351 -178 71 -60 160 -168 207
-252 68 -121 127 -308 152 -482 9 -62 18 -128 21 -145 l5 -33 64 0 65 0 2 875
3 875 1090 -1187 c600 -653 1365 -1486 1700 -1851 336 -366 611 -668 613 -673
2 -5 -179 -9 -418 -9 l-421 0 3 -62 3 -63 69 -7 c106 -10 197 -59 286 -155 59
-63 83 -100 135 -207 35 -72 94 -219 130 -326 37 -107 93 -257 126 -332 156
-361 291 -700 559 -1403 84 -220 220 -566 302 -770 82 -203 274 -682 426
-1062 l276 -693 76 0 75 0 476 1136 c262 624 480 1134 485 1133 5 -2 720 -777
1588 -1724 869 -946 1630 -1774 1693 -1840 l114 -120 -6 168 c-3 93 -10 215
-15 270 -15 162 -12 336 10 557 24 250 26 452 4 557 -8 42 -36 133 -61 202
-149 414 -138 375 -137 496 1 90 6 126 29 200 65 211 67 218 72 360 4 108 0
177 -16 303 -24 183 -26 249 -10 307 5 22 44 110 84 195 114 238 118 295 35
524 l-32 89 7 181 c7 204 6 213 -75 441 -48 136 -52 184 -36 450 9 140 9 142
-22 245 -62 214 -66 298 -26 533 33 187 37 369 11 464 -28 106 -63 161 -162
258 -51 50 -99 104 -108 121 -28 54 -37 115 -53 367 -23 375 -44 447 -185 632
-141 188 -156 240 -137 511 16 227 8 268 -81 451 -46 93 -81 183 -109 279 -54
187 -79 236 -175 346 -44 51 -88 111 -98 133 -25 54 -24 138 2 265 24 118 22
195 -6 255 -11 24 -79 100 -165 185 -95 95 -152 159 -163 185 -9 22 -34 86
-56 143 -45 114 -81 172 -138 222 -70 62 -264 182 -341 213 -71 27 -91 30
-242 36 -245 10 -272 28 -373 243 -82 174 -107 188 -347 198 -237 10 -262 25
-410 250 -34 52 -93 127 -131 166 -81 84 -87 109 -36 148 68 52 137 34 331
-84 110 -67 146 -84 226 -104 169 -42 389 -70 560 -70 182 0 215 8 505 124 97
39 216 82 263 96 116 35 266 41 427 20 163 -22 248 -21 331 5 67 21 73 25 209
164 127 130 145 145 194 159 67 20 102 20 216 1 159 -26 203 -17 281 57 44 41
69 81 136 212 132 260 203 316 487 382 247 57 306 84 391 181 34 39 134 188
199 295 13 22 9 32 -49 132 -73 127 -128 244 -159 337 -15 46 -41 92 -84 147
-34 43 -82 108 -107 142 -54 76 -117 128 -207 170 -158 75 -195 126 -237 330
-32 152 -39 174 -73 223 -37 54 -109 103 -210 144 -99 39 -146 71 -167 112 -8
15 -22 68 -31 117 -10 49 -23 103 -30 119 -22 54 -104 133 -263 254 -228 172
-235 181 -317 384 -41 100 -77 144 -143 175 -57 27 -58 27 -273 25 l-217 -2
-6 32 c-22 108 -150 190 -398 252 -129 33 -159 51 -284 168 -182 170 -228 187
-525 187 -116 0 -253 5 -306 11 -217 24 -392 92 -492 191 -59 60 -111 157
-118 220 -4 42 -3 44 42 73 25 17 66 56 91 87 25 32 79 88 120 125 105 96 115
121 124 313 5 101 13 170 23 197 42 113 133 218 255 297 39 26 72 51 72 55 0
4 -14 27 -30 49 -67 92 -164 134 -353 152 -312 29 -345 37 -477 116 -177 105
-249 116 -475 69 -100 -21 -150 -26 -215 -23 -79 4 -94 8 -210 63 l-125 59
-105 3 c-62 1 -126 -3 -156 -11z m-5059 -8071 c263 -286 480 -526 482 -532 7
-18 -59 -131 -118 -205 -155 -193 -409 -319 -719 -357 -52 -7 -104 -13 -116
-15 -20 -3 -21 2 -27 207 -9 269 -9 1305 0 1375 3 29 9 51 13 50 5 -2 223
-237 485 -523z m5891 -6416 c324 -352 590 -644 592 -649 2 -4 -75 -193 -170
-420 -154 -369 -173 -409 -181 -384 -5 16 -37 90 -72 164 -35 74 -102 236
-150 360 -48 124 -206 524 -352 889 -145 365 -267 670 -270 679 -4 9 -2 13 4
9 6 -4 276 -295 599 -648z"/>
<path d="M2820 16646 l0 -64 98 -7 c336 -25 551 -173 601 -413 8 -38 11 -597
11 -1930 -1 -2066 2 -1969 -63 -2105 -51 -109 -103 -155 -232 -205 -141 -56
-307 -102 -367 -102 l-48 0 0 -60 0 -60 870 0 870 0 0 64 0 64 -72 7 c-353 32
-544 233 -588 617 -12 98 -14 3238 -2 3237 4 0 734 -912 1622 -2027 l1615
-2027 54 -3 54 -3 -6 2193 c-6 2369 -7 2298 47 2440 13 36 35 83 49 104 34 55
113 126 171 153 53 26 246 58 377 63 l79 3 0 63 0 62 -895 0 -895 0 0 -63 0
-64 122 -7 c345 -19 501 -117 574 -361 17 -56 18 -134 21 -1125 2 -586 0
-1114 -4 -1173 l-8 -109 -1140 1451 -1140 1450 -887 0 -888 1 0 -64z"/>
<path d="M9933 11043 l-733 -3 0 -60 0 -60 68 0 c100 0 269 -26 334 -50 77
-29 145 -76 184 -127 76 -99 109 -272 99 -508 -3 -82 -8 -925 -11 -1873 -4
-1877 -2 -1801 -61 -1921 -71 -146 -200 -209 -461 -227 -126 -8 -152 -24 -152
-94 l0 -40 1220 0 1220 0 0 63 0 64 -119 7 c-343 19 -488 138 -540 441 -31
178 -39 713 -22 1415 l6 275 45 -3 c104 -8 203 -62 304 -166 73 -75 143 -181
1080 -1633 l299 -463 754 0 753 0 0 63 0 63 -67 11 c-112 20 -204 72 -309 177
-100 101 -146 166 -349 496 -323 526 -852 1333 -971 1481 l-53 67 82 32 c320
125 677 433 826 711 170 317 172 725 5 1078 -182 386 -504 631 -946 721 -245
50 -673 71 -1363 67 -214 -1 -720 -3 -1122 -4z m1638 -291 c425 -99 701 -392
764 -812 39 -253 -3 -514 -119 -755 -62 -128 -102 -186 -189 -273 -193 -197
-445 -277 -892 -284 l-170 -3 -3 1065 c-1 586 0 1071 3 1079 9 23 492 9 606
-17z"/>
<path d="M2718 6765 c-122 -31 -256 -120 -304 -201 -60 -101 -51 -192 29 -300
69 -94 74 -94 200 -35 l107 50 -21 45 c-23 46 -45 52 -51 14 -7 -46 -100 -84
-163 -67 -75 21 -122 120 -91 193 36 86 170 194 293 235 227 76 395 -77 263
-240 -16 -21 -27 -40 -22 -42 4 -2 37 10 74 27 61 29 66 34 53 47 -9 8 -18 40
-22 70 -18 165 -162 250 -345 204z"/>
<path d="M2975 6288 c-78 -14 -186 -73 -247 -133 -122 -121 -141 -256 -51
-356 166 -184 622 29 623 289 0 67 -21 113 -72 157 -60 50 -141 64 -253 43z
m213 -66 c50 -22 72 -57 72 -111 -1 -90 -60 -170 -182 -243 -124 -76 -224 -99
-310 -74 -71 20 -100 52 -106 114 -8 87 49 170 170 246 138 87 263 111 356 68z"/>
<path d="M3413 5893 c-7 -3 -13 -15 -13 -28 0 -31 -18 -43 -273 -199 -205
-125 -258 -149 -272 -127 -5 9 -10 9 -20 1 -11 -9 -2 -30 46 -108 105 -171
157 -207 292 -200 63 3 87 10 153 43 107 54 204 149 227 224 27 84 22 139 -16
213 -53 102 -111 186 -124 181z m76 -167 c45 -76 46 -143 3 -219 -58 -105
-224 -208 -344 -215 -96 -6 -147 20 -199 101 -22 34 -38 64 -37 68 5 13 522
328 533 325 6 -2 25 -28 44 -60z"/>
<path d="M3643 5362 c-62 -49 -89 -82 -67 -82 10 0 174 91 174 96 0 11 -21 44
-28 44 -4 -1 -39 -26 -79 -58z"/>
<path d="M3714 5216 c-49 -22 -112 -83 -125 -123 -8 -25 -9 -61 -4 -112 10
-100 8 -136 -10 -171 -16 -30 -80 -73 -127 -84 -32 -7 -76 8 -94 32 -34 46
-20 141 30 207 29 37 31 45 15 45 -14 0 -169 -109 -169 -118 0 -4 10 -12 23
-17 15 -7 28 -28 40 -65 33 -105 99 -138 209 -106 69 20 151 90 169 143 8 25
9 61 4 112 -16 157 -6 189 72 223 60 26 101 16 125 -31 14 -29 15 -39 3 -76
-7 -24 -22 -57 -34 -74 -36 -50 -15 -54 50 -9 62 44 68 52 44 62 -10 3 -15 19
-15 46 0 82 -49 130 -132 130 -24 -1 -57 -7 -74 -14z"/>
<path d="M4222 4707 c-7 -8 -9 -16 -6 -20 10 -9 -19 -52 -56 -84 -19 -16 -115
-94 -213 -173 -146 -118 -184 -143 -212 -144 -19 -1 -37 -5 -41 -9 -4 -3 12
-31 36 -62 32 -42 46 -53 55 -45 7 6 11 18 9 28 -7 26 25 57 244 232 168 136
209 163 237 164 19 1 37 5 41 9 5 5 -26 50 -76 110 -4 4 -12 2 -18 -6z"/>
<path d="M19268 4536 c-60 -21 -82 -40 -166 -138 -81 -94 -90 -121 -37 -110
14 2 36 -3 51 -13 46 -30 414 -346 423 -364 5 -9 9 -25 8 -35 -4 -40 23 -23
92 58 94 112 112 144 118 215 11 113 -48 217 -175 311 -113 84 -220 109 -314
76z m191 -78 c74 -35 197 -151 225 -211 9 -20 20 -59 23 -86 6 -57 -15 -110
-72 -176 -31 -36 -35 -38 -52 -24 -10 9 -118 100 -240 204 -123 103 -223 191
-223 195 0 4 24 32 53 62 82 86 161 95 286 36z"/>
<path d="M4356 4531 c-4 -5 -3 -16 0 -24 8 -22 -44 -76 -243 -249 -189 -165
-209 -180 -235 -172 -37 11 -37 -8 -2 -52 39 -48 54 -49 54 -4 0 23 12 41 53
79 85 80 362 319 365 316 2 -1 -49 -149 -113 -328 -111 -315 -122 -347 -109
-347 3 0 114 95 246 211 214 188 243 211 269 207 47 -7 51 13 13 55 -37 40
-54 41 -54 2 0 -13 -10 -35 -22 -48 -30 -32 -334 -297 -341 -297 -3 0 17 64
44 143 28 78 75 210 104 293 l53 152 -30 36 c-30 37 -42 43 -52 27z"/>
<path d="M19891 4386 c-23 -27 30 -86 65 -72 17 7 19 50 2 64 -25 19 -55 23
-67 8z"/>
<path d="M18766 4031 c-47 -48 -54 -78 -16 -66 11 3 30 1 42 -6 40 -21 418
-382 424 -404 3 -12 4 -27 2 -35 -9 -42 41 -3 154 118 l127 137 -52 53 c-28
28 -57 52 -64 52 -16 0 -17 1 7 -45 36 -70 27 -97 -64 -192 -22 -24 -44 -43
-49 -43 -16 0 -438 405 -443 425 -3 12 -4 27 -2 34 7 30 -20 18 -66 -28z"/>
<path d="M4899 3933 c-1 -5 0 -20 1 -35 1 -22 -27 -56 -155 -190 -242 -252
-252 -261 -280 -255 -14 2 -30 -1 -35 -8 -8 -9 3 -24 42 -58 29 -25 56 -43 60
-41 5 3 8 19 8 36 0 25 17 48 96 129 l97 98 103 -96 c57 -52 104 -99 104 -104
0 -15 -171 -188 -193 -195 -12 -4 -31 -8 -41 -8 -35 -2 -27 -23 25 -70 51 -46
75 -51 65 -13 -3 11 0 30 6 41 18 34 379 405 402 413 11 4 30 8 40 8 35 0 27
21 -24 69 -51 48 -76 52 -66 11 7 -28 -27 -76 -117 -164 l-65 -64 -106 99
c-58 54 -106 101 -106 105 0 3 42 47 94 97 75 74 99 92 123 92 16 0 33 3 37 7
8 9 -84 103 -101 103 -7 0 -13 -3 -14 -7z"/>
<path d="M18599 3826 c-50 -18 -82 -43 -163 -124 -39 -40 -65 -75 -62 -81 4
-6 12 -9 17 -5 27 16 72 -21 253 -210 166 -173 196 -209 196 -235 0 -16 5 -33
11 -37 13 -7 111 85 103 98 -3 4 -19 8 -37 8 -26 0 -45 15 -125 97 l-94 96 41
41 41 40 127 -53 c71 -29 147 -60 170 -69 l43 -16 30 29 c35 34 27 51 -23 47
-21 -1 -80 19 -167 56 l-135 58 3 51 c3 36 -2 62 -17 91 -20 40 -104 122 -125
122 -6 0 -20 2 -31 5 -11 3 -36 -1 -56 -9z m55 -56 c38 -14 104 -87 115 -126
14 -49 -2 -91 -51 -141 l-42 -43 -108 107 -108 107 33 34 c62 66 106 83 161
62z"/>
<path d="M5323 3538 c-4 -7 -6 -21 -5 -31 5 -27 -16 -55 -192 -252 -187 -209
-192 -214 -228 -215 -15 0 -29 -4 -32 -9 -7 -11 95 -102 109 -98 5 2 9 18 7
34 -3 36 -7 32 211 275 158 178 187 204 212 194 7 -2 18 1 24 8 8 9 -3 24 -44
59 -39 34 -56 44 -62 35z"/>
<path d="M18164 3456 c-105 -54 -138 -156 -95 -295 51 -164 212 -307 367 -327
76 -9 152 27 195 93 29 46 30 52 27 134 -3 73 -9 97 -37 154 -69 140 -217 251
-349 262 -47 4 -65 0 -108 -21z m183 -51 c67 -34 188 -161 232 -245 28 -52 35
-76 35 -125 0 -105 -45 -155 -141 -155 -74 0 -145 39 -229 125 -93 95 -144
193 -144 272 0 105 44 152 141 153 39 0 69 -7 106 -25z"/>
<path d="M5474 3321 c-51 -23 -111 -93 -125 -145 -13 -48 -5 -94 27 -163 37
-78 40 -114 14 -168 -38 -78 -138 -124 -186 -84 -43 35 -56 123 -29 199 30 84
17 81 -63 -15 -34 -41 -62 -79 -62 -85 0 -5 11 -10 24 -10 17 0 32 -14 57 -52
46 -72 95 -96 158 -79 62 16 130 68 165 124 42 68 41 139 -2 230 -42 88 -42
134 -2 181 61 69 141 66 170 -5 12 -28 11 -42 -3 -97 -9 -35 -14 -68 -11 -73
5 -8 104 101 104 114 0 3 -7 7 -16 9 -9 2 -24 23 -33 48 -30 81 -103 109 -187
71z"/>
<path d="M17873 3206 c-47 -35 -55 -56 -20 -56 13 0 32 -9 42 -20 18 -20 197
-481 190 -489 -2 -2 -62 39 -132 91 l-128 94 -33 89 c-19 50 -35 112 -37 138
-1 26 -4 50 -7 52 -5 5 -212 -153 -216 -165 -4 -10 4 -14 48 -24 14 -3 75 -42
135 -86 l110 -81 43 -116 c24 -63 41 -117 39 -119 -2 -2 -99 66 -216 152 -191
141 -212 159 -210 183 6 53 -9 54 -72 5 -64 -49 -71 -71 -22 -66 25 3 72 -28
307 -202 153 -113 282 -204 286 -201 5 3 -3 36 -16 73 -14 37 -41 107 -60 157
-18 49 -32 90 -31 92 2 1 64 -42 138 -96 73 -55 137 -97 140 -95 4 2 -45 144
-107 316 -78 214 -114 326 -114 355 0 23 -3 44 -7 46 -5 3 -27 -9 -50 -27z
m-154 -190 c12 -14 61 -133 61 -148 0 -13 -121 75 -132 96 -9 16 -6 24 16 43
31 27 39 28 55 9z"/>
<path d="M6047 2944 c-3 -4 -4 -19 -1 -34 8 -36 5 -40 -165 -284 -139 -199
-179 -245 -199 -232 -6 3 -15 0 -21 -8 -9 -10 2 -22 49 -55 33 -23 61 -41 61
-39 1 2 2 21 3 43 2 32 17 61 77 147 41 59 78 107 82 108 9 0 237 -159 237
-166 0 -7 -123 -179 -148 -206 -14 -16 -36 -28 -49 -28 -38 0 -26 -25 30 -64
63 -43 71 -44 64 -9 -3 15 -1 38 4 51 16 41 309 452 335 468 13 9 27 13 32 10
6 -3 15 0 21 7 8 11 -3 23 -49 55 -64 44 -76 42 -72 -13 2 -23 -13 -53 -68
-132 -39 -57 -74 -103 -78 -103 -4 1 -59 38 -124 83 l-116 83 70 99 c70 99 85
115 122 125 35 10 27 26 -29 63 -59 40 -59 40 -68 31z"/>
<path d="M17045 2615 c-16 -14 -85 -59 -152 -101 -87 -53 -120 -79 -116 -90 3
-8 13 -12 22 -9 27 8 57 -32 203 -265 138 -221 151 -247 137 -272 -4 -7 -4
-20 1 -27 6 -11 48 12 179 94 l171 108 -34 61 c-19 34 -38 59 -43 56 -4 -3 -6
-9 -4 -15 27 -66 -2 -112 -118 -186 -42 -26 -76 -47 -77 -46 -1 1 -38 59 -83
130 l-81 127 48 30 c50 31 81 37 99 19 6 -6 16 -10 22 -8 5 2 -8 33 -30 67
-22 35 -43 61 -47 58 -3 -4 -6 -21 -6 -38 -1 -27 -9 -36 -52 -64 l-52 -33 -76
120 c-42 67 -76 124 -76 128 0 10 132 89 162 96 20 5 38 1 63 -13 19 -12 37
-17 39 -13 4 6 -60 112 -67 111 -1 -1 -15 -12 -32 -25z"/>
<path d="M6524 2578 c1 -38 -14 -66 -133 -258 -142 -228 -172 -267 -204 -272
-11 -2 -22 -8 -24 -14 -3 -9 300 -208 330 -217 12 -3 92 111 84 119 -3 4 -21
-6 -39 -21 -43 -36 -86 -30 -176 23 -114 69 -112 49 -21 195 l81 127 36 -21
c61 -37 73 -51 70 -81 -1 -15 1 -28 6 -29 11 -1 87 117 80 124 -3 3 -18 -2
-34 -11 -26 -15 -30 -15 -63 3 -83 45 -83 37 -5 160 38 61 73 116 77 124 7 11
21 6 68 -23 92 -57 116 -86 111 -135 -5 -56 11 -52 48 11 l32 52 -72 41 c-39
22 -108 64 -153 93 -46 29 -87 52 -91 52 -5 0 -9 -19 -8 -42z"/>
<path d="M16643 2364 c-42 -24 -60 -40 -56 -50 3 -8 13 -14 24 -14 10 0 27 -9
37 -20 20 -22 122 -202 122 -216 0 -9 -249 -149 -254 -143 -13 16 -115 209
-121 227 -4 13 -1 29 6 38 9 11 9 18 1 26 -14 14 -132 -50 -125 -69 3 -7 13
-13 22 -13 29 0 54 -37 181 -264 141 -255 144 -260 129 -288 -21 -40 6 -42 69
-7 56 33 71 59 33 59 -10 0 -27 10 -38 23 -34 36 -136 228 -127 236 5 5 63 38
129 74 l119 66 49 -87 c77 -136 90 -168 76 -193 -20 -39 5 -41 66 -7 62 35 73
51 39 56 -34 5 -54 34 -186 272 -130 236 -143 263 -128 290 20 37 -5 38 -67 4z"/>
<path d="M7090 2273 c-28 -6 -42 -22 -35 -40 7 -20 -428 -420 -465 -428 -41
-9 -38 -27 10 -54 46 -26 61 -21 54 17 -4 23 3 35 45 76 l49 49 109 -61 108
-61 -2 -38 c-4 -61 -23 -103 -49 -113 -13 -5 -24 -14 -24 -19 0 -13 108 -74
119 -67 5 3 6 25 4 48 -3 29 16 148 56 354 62 319 67 345 54 343 -5 -1 -19 -4
-33 -6z m-45 -135 c-3 -13 -18 -89 -34 -171 -15 -81 -30 -150 -33 -153 -6 -5
-198 98 -197 106 1 8 253 239 262 240 4 0 5 -10 2 -22z"/>
<path d="M7340 2130 c0 -5 5 -20 11 -32 8 -18 0 -100 -35 -354 -25 -182 -46
-339 -46 -349 0 -13 88 69 253 232 170 169 260 252 277 255 45 6 35 32 -21 56
-29 12 -55 20 -57 17 -3 -3 0 -17 7 -31 17 -38 -2 -63 -204 -264 -146 -146
-175 -171 -175 -150 1 57 68 522 77 531 6 6 19 12 29 13 40 6 23 31 -39 59
-67 30 -77 32 -77 17z"/>
<path d="M16192 2124 c-31 -22 -268 -138 -325 -159 -26 -10 -50 -21 -52 -25
-7 -12 43 -120 55 -120 7 0 9 13 5 34 -10 48 7 72 75 106 l60 30 44 -92 c24
-51 82 -173 130 -271 47 -97 86 -185 86 -195 0 -10 -5 -23 -12 -30 -9 -9 -9
-15 0 -24 9 -9 25 -5 72 17 58 28 79 55 42 55 -33 0 -57 41 -186 305 l-126
260 57 27 c72 34 84 35 123 2 17 -15 33 -24 36 -21 6 5 -47 117 -56 117 -3 0
-16 -7 -28 -16z"/>
<path d="M7864 1879 c-3 -6 -1 -16 5 -22 6 -6 11 -20 11 -30 0 -26 -206 -516
-227 -539 -9 -10 -24 -18 -35 -18 -10 0 -18 -6 -18 -14 0 -9 67 -43 179 -90
99 -42 182 -76 185 -76 3 0 19 27 36 60 32 64 31 104 -1 51 -20 -34 -54 -46
-102 -38 -48 7 -187 68 -187 81 0 6 25 70 56 143 l56 132 32 -13 c80 -35 85
-38 88 -70 2 -17 7 -31 11 -31 5 0 22 30 37 68 21 48 25 67 16 67 -8 0 -19 -7
-26 -15 -7 -8 -21 -15 -30 -15 -22 0 -110 37 -110 46 0 11 101 248 110 257 12
13 159 -53 181 -81 10 -14 19 -40 19 -58 0 -49 13 -42 39 21 23 55 22 75 -5
75 -8 0 -79 27 -156 60 -78 33 -145 60 -149 60 -5 0 -11 -5 -15 -11z"/>
<path d="M15463 1783 c-67 -26 -76 -38 -40 -52 13 -5 28 -15 34 -22 13 -16 93
-218 93 -235 0 -14 -261 -117 -270 -107 -4 4 -27 59 -50 122 -39 101 -42 116
-32 144 7 17 8 34 4 38 -9 9 -132 -40 -132 -52 0 -5 10 -13 23 -18 13 -5 28
-15 34 -22 12 -15 186 -458 201 -513 7 -25 6 -39 -3 -53 -25 -36 -3 -46 51
-25 27 10 57 22 66 25 22 8 13 37 -12 37 -10 0 -24 10 -32 23 -16 24 -98 230
-98 245 0 12 262 114 271 105 13 -15 89 -222 90 -245 0 -13 -3 -35 -7 -50 -7
-33 -1 -34 52 -12 22 9 49 20 61 25 26 10 21 39 -7 39 -10 0 -24 10 -33 23
-18 28 -207 514 -207 533 0 8 6 23 12 34 22 34 -3 39 -69 13z"/>
<path d="M8297 1696 c-4 -9 -2 -16 3 -16 27 0 4 -93 -80 -325 -86 -237 -115
-295 -141 -279 -5 3 -9 -3 -9 -14 0 -13 13 -22 50 -34 54 -18 65 -10 44 30 -8
16 -9 34 -3 54 22 77 173 488 177 483 3 -3 31 -158 62 -345 51 -308 63 -362
73 -349 2 2 48 128 102 279 113 317 118 328 150 340 39 15 29 35 -24 52 -41
13 -51 13 -55 2 -3 -7 -1 -16 4 -19 21 -13 7 -75 -60 -262 -39 -108 -74 -203
-79 -211 -11 -19 -9 -26 -67 317 -45 267 -49 284 -71 292 -52 20 -70 21 -76 5z"/>
<path d="M14935 1589 c-38 -17 -133 -48 -210 -71 -77 -22 -142 -42 -144 -44
-6 -6 36 -119 45 -119 5 0 10 18 12 40 2 22 8 45 13 52 9 11 130 56 135 50 8
-9 184 -560 184 -577 0 -11 -5 -29 -12 -40 -20 -31 -2 -35 65 -14 66 22 77 37
37 57 -26 13 -65 116 -174 459 l-44 137 53 16 c78 22 99 20 130 -16 14 -17 28
-29 31 -26 8 8 -30 120 -42 123 -5 1 -40 -11 -79 -27z"/>
<path d="M14441 1431 c-50 -15 -53 -18 -37 -31 9 -8 25 -23 34 -32 19 -19 162
-505 162 -551 0 -15 -5 -36 -12 -47 -19 -30 -4 -34 67 -15 65 18 86 41 46 52
-11 3 -26 19 -35 37 -16 34 -156 519 -156 541 0 8 7 21 16 29 18 18 11 36 -14
35 -9 -1 -41 -9 -71 -18z"/>
<path d="M9232 1390 c-25 -16 -31 -25 -27 -42 7 -31 -307 -507 -347 -526 -16
-7 -28 -19 -28 -26 0 -13 98 -41 108 -31 3 3 0 17 -7 31 -10 22 -8 32 16 75
41 76 38 75 173 39 l120 -33 0 -73 c0 -63 -3 -75 -20 -84 -35 -19 -22 -35 43
-52 68 -18 85 -10 61 27 -11 17 -18 99 -29 331 -8 170 -15 326 -15 347 0 43
-3 44 -48 17z m-3 -296 c5 -93 8 -171 5 -173 -2 -2 -51 8 -109 24 -76 20 -105
32 -101 41 9 25 188 286 192 281 2 -2 8 -80 13 -173z"/>
<path d="M14293 1387 c-49 -11 -53 -21 -18 -49 21 -16 25 -28 25 -71 0 -93
-23 -452 -30 -465 -4 -9 -35 36 -83 120 -68 118 -77 140 -77 184 1 83 17 185
34 202 8 10 12 23 7 30 -6 10 -36 6 -135 -17 -70 -16 -130 -32 -133 -35 -3 -2
13 -22 34 -43 22 -21 67 -87 100 -148 l61 -110 -9 -119 c-4 -65 -10 -120 -12
-123 -8 -7 -257 436 -257 457 0 11 5 29 12 40 19 30 4 33 -76 16 -57 -13 -74
-21 -69 -32 3 -8 11 -14 18 -14 24 0 59 -54 215 -333 85 -152 160 -276 167
-277 7 0 13 34 17 98 4 53 10 130 14 170 l7 73 84 -151 c46 -83 87 -147 91
-143 4 4 17 150 29 323 24 348 27 374 46 390 15 13 9 41 -9 39 -6 -1 -30 -6
-53 -12z m-205 -179 c2 -51 -1 -88 -7 -88 -11 0 -81 125 -81 146 0 17 36 34
65 31 18 -2 20 -10 23 -89z"/>
<path d="M9550 1310 c0 -10 5 -22 10 -25 19 -12 10 -74 -44 -324 -56 -257 -67
-291 -90 -291 -12 0 -32 -29 -24 -35 2 -1 62 -14 133 -29 72 -16 156 -34 187
-41 l56 -13 17 74 c20 90 12 111 -22 55 -13 -23 -38 -48 -54 -57 -28 -14 -38
-14 -112 2 -45 9 -86 20 -90 24 -9 8 107 560 124 592 5 9 18 20 29 23 22 7 28
35 8 35 -7 1 -39 7 -70 14 -55 13 -58 13 -58 -4z"/>
<path d="M9980 1217 c0 -8 7 -20 15 -27 8 -7 15 -23 15 -37 0 -41 -89 -543
-100 -564 -6 -10 -17 -19 -25 -19 -8 0 -15 -8 -15 -18 0 -15 24 -22 173 -45
94 -16 179 -30 188 -33 13 -4 18 10 28 72 9 55 10 79 2 87 -8 8 -11 6 -11 -6
0 -9 -16 -35 -36 -57 -29 -32 -43 -40 -72 -40 -31 0 -163 19 -169 24 -2 1 20
135 47 297 46 270 52 296 75 316 43 38 34 47 -58 58 -47 6 -57 5 -57 -8z"/>
<path d="M13470 1213 c-80 -18 -223 -41 -313 -49 -43 -4 -80 -10 -82 -14 -7
-12 16 -130 25 -125 4 3 11 20 14 39 4 19 13 39 20 45 17 14 133 37 142 29 6
-7 93 -549 94 -585 0 -12 -7 -28 -15 -37 -24 -23 -19 -49 8 -43 12 3 43 9 70
12 50 8 62 26 27 45 -10 6 -24 27 -30 48 -19 70 -92 564 -83 572 4 4 36 11 70
15 59 7 63 6 88 -21 14 -15 25 -33 25 -40 0 -8 5 -14 11 -14 11 0 3 104 -10
126 -4 7 -23 6 -61 -3z"/>
<path d="M10430 1060 c0 -55 4 -100 9 -100 12 0 55 176 46 189 -3 6 -17 11
-31 11 -24 0 -24 -1 -24 -100z"/>
<path d="M12936 1131 c-50 -6 -72 -26 -42 -37 28 -11 37 -41 51 -167 7 -67 13
-123 12 -123 -1 -1 -54 -7 -117 -13 -63 -6 -129 -14 -146 -16 l-31 -5 -13 130
c-11 116 -11 132 4 155 23 36 20 45 -16 45 -59 0 -108 -12 -108 -26 0 -8 4
-14 10 -14 29 0 41 -55 65 -291 29 -285 30 -322 10 -343 -25 -24 -17 -36 24
-36 53 0 101 11 101 22 0 5 -9 17 -20 26 -22 19 -33 71 -45 215 -7 87 -7 87
16 88 13 0 78 6 144 13 66 7 122 12 123 10 2 -1 9 -60 16 -131 13 -123 9 -163
-13 -178 -6 -3 -11 -13 -11 -21 0 -12 12 -13 68 -8 37 4 71 10 76 14 4 5 -3
18 -17 30 -31 27 -31 26 -62 339 l-26 255 21 28 c36 49 32 52 -74 39z"/>
<path d="M10654 1111 c-45 -27 -77 -100 -78 -176 -1 -51 4 -68 27 -104 15 -23
49 -54 75 -69 100 -58 137 -119 122 -200 -14 -77 -66 -129 -118 -117 -54 11
-131 119 -132 183 0 14 -5 22 -12 20 -12 -4 -41 -196 -31 -207 1 -2 13 0 26 6
18 9 34 6 78 -13 29 -13 68 -23 85 -24 47 0 95 38 128 104 25 47 30 70 30 124
0 100 -33 147 -147 214 -60 35 -82 70 -81 129 0 51 30 103 64 114 59 19 114
-28 136 -114 13 -55 31 -64 38 -19 18 117 18 121 -2 116 -11 -3 -35 7 -57 23
-46 35 -104 38 -151 10z"/>
<path d="M11300 1063 c0 -7 9 -22 21 -34 19 -19 20 -27 14 -257 -7 -297 -11
-338 -36 -363 -10 -10 -19 -23 -19 -28 0 -5 32 -11 70 -13 60 -3 70 -1 70 13
0 9 -6 19 -14 22 -21 8 -27 63 -20 185 l7 113 56 -3 56 -3 65 -165 66 -165 47
-3 c54 -4 60 8 22 41 -16 14 -45 73 -80 162 -50 127 -53 140 -37 149 35 20 70
67 81 110 31 123 -9 210 -108 235 -20 5 -87 11 -148 13 -89 4 -113 2 -113 -9z
m221 -33 c58 -16 82 -51 87 -123 8 -121 -41 -177 -155 -177 l-63 0 0 48 c0 27
3 97 7 155 l6 107 41 0 c23 0 57 -5 77 -10z"/>
<path d="M12169 1060 c-113 -59 -168 -230 -137 -417 27 -160 82 -239 186 -269
67 -20 143 -11 228 25 l50 22 -4 122 c-2 67 -6 124 -8 126 -7 7 -94 -11 -94
-20 0 -5 9 -18 20 -29 16 -16 20 -33 20 -81 0 -58 -2 -64 -39 -100 -35 -36
-43 -39 -93 -39 -70 0 -110 26 -150 96 -40 73 -61 178 -56 295 3 83 8 105 33
155 52 100 126 129 210 81 26 -15 49 -39 65 -70 14 -26 28 -47 33 -47 8 0 10
144 1 153 -3 3 -14 1 -23 -5 -12 -7 -27 -6 -55 6 -53 22 -142 20 -187 -4z"/>
<path d="M11794 1058 c-4 -6 0 -16 9 -23 33 -24 37 -65 37 -341 0 -261 -1
-275 -20 -294 -33 -33 -24 -40 50 -40 76 0 82 6 50 47 -19 24 -20 41 -20 313
0 274 1 288 20 305 38 34 26 45 -49 45 -42 0 -73 -5 -77 -12z"/>
<path d="M8650 911 c-15 -30 -12 -69 8 -80 15 -10 13 -14 -20 -46 -46 -43 -49
-63 -7 -38 39 22 89 97 89 133 0 48 -49 69 -70 31z"/>
</g>
</svg>
